<?xml version="1.0" encoding="UTF-8"?>
<svg version="1.1" xmlns="http://www.w3.org/2000/svg" width="554" height="320">
<path d="M0 0 C15.92938497 0.41002278 15.92938497 0.41002278 22 5 C21.67 7.31 21.34 9.62 21 12 C16.47942904 13.13702786 12.04660217 13.12814634 7.41796875 13.09765625 C6.19670036 13.09553383 6.19670036 13.09553383 4.95075989 13.09336853 C2.36296844 13.08779317 -0.22473492 13.07524524 -2.8125 13.0625 C-4.57226437 13.05748181 -6.33203011 13.05291946 -8.09179688 13.04882812 C-12.39456494 13.03783181 -16.69726756 13.02058421 -21 13 C-20.74443878 15.58567818 -20.47122959 18.16739048 -20.1875 20.75 C-20.11724609 21.47960937 -20.04699219 22.20921875 -19.97460938 22.9609375 C-19.50913658 27.05709807 -19.13308984 30.15717292 -16 33 C-13.12961948 33.29561076 -10.66245255 33.37943016 -7.8125 33.25 C-7.06291016 33.23195312 -6.31332031 33.21390625 -5.54101562 33.1953125 C-3.6934629 33.14824109 -1.84656841 33.07649766 0 33 C-0.06316406 32.071875 -0.12632812 31.14375 -0.19140625 30.1875 C0 27 0 27 1.28515625 25.25 C3.18076611 23.91682383 4.82811152 22.82598848 7 22 C10.9375 22.6875 10.9375 22.6875 14 24 C14.495 25.98 14.495 25.98 15 28 C15.33 26.35 15.66 24.7 16 23 C17.98 22.34 19.96 21.68 22 21 C22.495 21.99 22.495 21.99 23 23 C23.66 23 24.32 23 25 23 C25.2475 23.598125 25.495 24.19625 25.75 24.8125 C26.87980389 27.13293213 26.87980389 27.13293213 29.125 28.5625 C29.74375 29.036875 30.3625 29.51125 31 30 C31 30.99 31 31.98 31 33 C28 35 28 35 26 36 C25.67 35.34 25.34 34.68 25 34 C25.01160156 34.64066406 25.02320313 35.28132813 25.03515625 35.94140625 C25.07768963 40.01853463 25.10222914 43.96901431 24.4375 48 C23.72024794 50.91683307 23.72024794 50.91683307 25 53 C25.4021875 51.9171875 25.4021875 51.9171875 25.8125 50.8125 C27.01261623 47.97011947 28.19186511 45.50357139 30 43 C32.1875 42.1875 32.1875 42.1875 34 42 C35.80874649 47.45084827 33.34731511 52.07345488 31.046875 57.0703125 C29.70073322 59.62370842 28.43088183 61.66965726 26.125 63.4375 C23.266746 64.19409665 20.94282335 64.31306631 18 64 C17.319375 63.2265625 17.319375 63.2265625 16.625 62.4375 C15.13016261 60.78399434 15.13016261 60.78399434 13.1484375 61.05859375 C11.73990324 61.26603243 10.33538234 61.50339205 8.9375 61.7734375 C7 62 7 62 4 61 C1.70096656 56.14896505 1.87042929 51.94076571 2.3125 46.75 C2.36083984 46.03070313 2.40917969 45.31140625 2.45898438 44.5703125 C2.84862637 39.30274725 2.84862637 39.30274725 4 37 C3.01 37.495 3.01 37.495 2 38 C2 38.99 2 39.98 2 41 C-3.94 41.33 -9.88 41.66 -16 42 C-16 42.66 -16 43.32 -16 44 C-16.99 44 -17.98 44 -19 44 C-18.97679687 44.88300781 -18.95359375 45.76601562 -18.9296875 46.67578125 C-18.81386447 54.37801243 -19.28273379 61.48696035 -21 69 C-26.88461538 67.96153846 -26.88461538 67.96153846 -29 65 C-30.20924731 60.59899788 -30.11508317 56.21369725 -30.0625 51.6875 C-30.05798828 50.94693359 -30.05347656 50.20636719 -30.04882812 49.44335938 C-30.03712175 47.62887101 -30.01918898 45.81442466 -30 44 C-32.64 44 -35.28 44 -38 44 C-38.33 43.34 -38.66 42.68 -39 42 C-38.34 42 -37.68 42 -37 42 C-37.33 41.01 -37.66 40.02 -38 39 C-34.846632 38.29925156 -32.27275026 38 -29 38 C-29.12568359 36.40671875 -29.12568359 36.40671875 -29.25390625 34.78125 C-29.35717988 33.35419621 -29.46002128 31.92711109 -29.5625 30.5 C-29.61857422 29.80390625 -29.67464844 29.1078125 -29.73242188 28.390625 C-30.07647281 23.43629152 -29.74667506 18.91146261 -29 14 C-29.83249268 14.01571045 -30.66498535 14.0314209 -31.52270508 14.04760742 C-34.61447856 14.09876642 -37.70603618 14.1363648 -40.7980957 14.16479492 C-42.79327701 14.18728333 -44.78826213 14.22540198 -46.78320312 14.26367188 C-48.03681641 14.27333984 -49.29042969 14.28300781 -50.58203125 14.29296875 C-51.73936768 14.3086792 -52.8967041 14.32438965 -54.08911133 14.34057617 C-57 14 -57 14 -58.90112305 12.48168945 C-59.26375244 11.99273193 -59.62638184 11.50377441 -60 11 C-58.94921875 9.078125 -58.94921875 9.078125 -57 7 C-53.70703125 6.171875 -53.70703125 6.171875 -49.8125 5.75 C-48.79385864 5.63398437 -48.79385864 5.63398437 -47.75463867 5.515625 C-44.4321373 5.15863241 -41.15309043 4.91506973 -37.8125 5 C-33.47130168 5 -29.50751748 4.27866877 -25.24609375 3.5078125 C-20.71813768 2.79946799 -16.18954515 2.51473347 -11.6171875 2.24609375 C-9.02082694 2.16104517 -9.02082694 2.16104517 -7 1 C-4.6670134 0.95977609 -2.33293334 0.95679753 0 1 C0 0.67 0 0.34 0 0 Z M1 33 C0.67 33.99 0.34 34.98 0 36 C0.62648437 36.04898438 1.25296875 36.09796875 1.8984375 36.1484375 C3.12433594 36.26058594 3.12433594 36.26058594 4.375 36.375 C5.59316406 36.47941406 5.59316406 36.47941406 6.8359375 36.5859375 C9 37 9 37 11 39 C11.1875 42.0625 11.1875 42.0625 11 45 C10.67 45.33 10.34 45.66 10 46 C9.92820036 47.51928038 9.91607993 49.04167482 9.9375 50.5625 C9.94652344 51.38878906 9.95554687 52.21507812 9.96484375 53.06640625 C9.97644531 53.70449219 9.98804688 54.34257812 10 55 C13.12210839 53.43894581 13.67854711 51.1671185 15 48 C15.56915172 44.3491481 15.56915172 44.3491481 15.6875 40.625 C15.75324219 39.37976563 15.81898438 38.13453125 15.88671875 36.8515625 C15.92410156 35.91054687 15.96148437 34.96953125 16 34 C12.41672247 32.99782936 12.41672247 32.99782936 9 34 C6.30434798 33.83219837 3.67594446 33.38844355 1 33 Z M23 54 C24 56 24 56 24 56 Z " fill="#62666B" transform="translate(148,112)"/>
<path d="M0 0 C0.23303408 7.22405653 -0.37175725 14.1609309 -1.28857422 21.31396484 C-2.74494721 30.35530804 -2.74494721 30.35530804 -1 39 C0.97180477 35.31358239 2.33116965 32.12445382 3 28 C3.495 26.515 3.495 26.515 4 25 C5.98 25.495 5.98 25.495 8 26 C9.99217384 30.9804346 7.61368635 35.50961887 5.6875 40.1875 C3.74951413 43.41747645 2.28411553 45.13402527 -1 47 C-4.75 46.875 -4.75 46.875 -8 46 C-8.33 45.34 -8.66 44.68 -9 44 C-9.556875 44.309375 -10.11375 44.61875 -10.6875 44.9375 C-13.24535838 46.11273223 -15.18366852 46.79392696 -18 47 C-20.625 45.6875 -20.625 45.6875 -23 44 C-23.99 43.34 -24.98 42.68 -26 42 C-26.66 42.763125 -27.32 43.52625 -28 44.3125 C-31.09794177 47.41044177 -34.70043784 49.16231195 -39 50 C-41.24609375 49.5703125 -41.24609375 49.5703125 -43 49 C-43 48.34 -43 47.68 -43 47 C-44.485 46.505 -44.485 46.505 -46 46 C-46 45.01 -46 44.02 -46 43 C-49.32454983 43.57319825 -50.73981645 44.54327875 -53 47 C-56.68366239 49.45577493 -58.55407367 50.14819754 -63 50 C-66.59059743 48.02654187 -68.37922115 45.74334682 -70 42 C-71.2050213 33.32472783 -69.83095352 24.32434889 -65 17 C-64.34 17 -63.68 17 -63 17 C-62.67 16.01 -62.34 15.02 -62 14 C-58.06069365 14.22726767 -55.68917038 14.419646 -52.625 17 C-50.48114905 20.95787867 -50.19371646 24.55420722 -50 29 C-56.5 33 -56.5 33 -61 33 C-60.67 35.97 -60.34 38.94 -60 42 C-55.31913782 40.82978445 -53.49222679 39.47150062 -51 35.34375 C-48.48382365 30.54728883 -46.71613952 25.55683657 -45.02734375 20.41796875 C-43.59597302 17.04907718 -42.11703448 15.46543103 -38.75 14.0625 C-34.63283516 13.96892807 -32.42778179 15.78202355 -29 18 C-28.97303635 19.79158489 -28.95362083 21.58328473 -28.9375 23.375 C-28.92589844 24.37273437 -28.91429687 25.37046875 -28.90234375 26.3984375 C-29 29 -29 29 -30 31 C-32.06640625 31.6328125 -32.06640625 31.6328125 -34.5625 32.125 C-35.38878906 32.29257813 -36.21507812 32.46015625 -37.06640625 32.6328125 C-38.02353516 32.81457031 -38.02353516 32.81457031 -39 33 C-38.67 35.31 -38.34 37.62 -38 40 C-36.68 40.33 -35.36 40.66 -34 41 C-30.06764096 36.50587538 -26 31.15240162 -26 25 C-25.34 25 -24.68 25 -24 25 C-23.855625 24.236875 -23.71125 23.47375 -23.5625 22.6875 C-21.14347148 18.52677094 -17.44340043 18.22690907 -13 17 C-12.34 16.67 -11.68 16.34 -11 16 C-9.84429296 12.53287889 -9.67164707 9.4585044 -9.4375 5.8125 C-9.35371094 4.54019531 -9.26992188 3.26789063 -9.18359375 1.95703125 C-9.09271484 0.49330078 -9.09271484 0.49330078 -9 -1 C-5.28272326 -2.13583456 -3.52948291 -1.66670026 0 0 Z M-37 21 C-36 23 -36 23 -36 23 Z M-59 24 C-59.33 24.66 -59.66 25.32 -60 26 C-59.34 26 -58.68 26 -58 26 C-58.33 25.34 -58.66 24.68 -59 24 Z M-14 24 C-14.99 25.485 -14.99 25.485 -16 27 C-16.556875 27.8353125 -16.556875 27.8353125 -17.125 28.6875 C-18.4570725 32.20797732 -18.18179393 35.24292552 -18 39 C-17.67 39.66 -17.34 40.32 -17 41 C-14.98567734 40.49743888 -14.98567734 40.49743888 -13 39 C-11.29939729 34.57843296 -10.76997371 30.71553888 -11 26 C-11.66 26 -12.32 26 -13 26 C-13.33 25.34 -13.66 24.68 -14 24 Z " fill="#787B80" transform="translate(438,128)"/>
<path d="M0 0 C1.98 0 3.96 0 6 0 C6.33 1.32 6.66 2.64 7 4 C7.66 4 8.32 4 9 4 C10.17076699 7.98060777 11.25749403 11.91621717 12 16 C12.66 16 13.32 16 14 16 C15.51848879 19.45111089 16.92940342 22.77575203 18.0625 26.375 C18.70982592 29.14320686 18.70982592 29.14320686 21 30 C21.66666667 31.33333333 22.33333333 32.66666667 23 34 C23.53625 34.515625 24.0725 35.03125 24.625 35.5625 C26 37 26 37 26 40 C27.485 40.495 27.485 40.495 29 41 C30.34331654 42.99330842 31.67594012 44.99384866 33 47 C35.10575643 48.83300909 35.10575643 48.83300909 37 50 C36.67 50.33 36.34 50.66 36 51 C36.99 51.33 37.98 51.66 39 52 C39.639375 52.804375 40.27875 53.60875 40.9375 54.4375 C42.91391935 56.89305131 44.12464744 57.87039721 47 59 C47 59.66 47 60.32 47 61 C48.93674185 61.19517554 50.87444009 61.38087873 52.8125 61.5625 C53.89144531 61.66691406 54.97039062 61.77132812 56.08203125 61.87890625 C59.06482454 62.17577609 59.06482454 62.17577609 62 61 C63.71567661 57.49705129 63.71567661 57.49705129 65 54 C65.33 54 65.66 54 66 54 C66.77971063 44.15615331 67.10444268 34.41056373 66.96289062 24.53637695 C66.79621528 7.93775651 66.79621528 7.93775651 71 3 C72.32 3.33 73.64 3.66 75 4 C75.31319144 5.39567835 75.62551788 6.79155082 75.9375 8.1875 C76.19853516 9.35345703 76.19853516 9.35345703 76.46484375 10.54296875 C76.64144531 11.35378906 76.81804687 12.16460937 77 13 C77.25885986 14.12873535 77.25885986 14.12873535 77.52294922 15.28027344 C78.43669931 20.48967777 78.18464707 25.78742785 78.1875 31.0625 C78.19974609 32.22716797 78.21199219 33.39183594 78.22460938 34.59179688 C78.2403651 44.01897188 77.76946579 53.24941909 74 62 C73.34 62 72.68 62 72 62 C71.9175 62.5775 71.835 63.155 71.75 63.75 C70.41383903 67.75848291 67.42183812 69.71877459 64 72 C61.2578125 72.23046875 61.2578125 72.23046875 58.125 72.1875 C57.09632813 72.18105469 56.06765625 72.17460937 55.0078125 72.16796875 C52.23760708 72.01326897 49.69911183 71.62248889 47 71 C47 70.34 47 69.68 47 69 C46.4225 68.9175 45.845 68.835 45.25 68.75 C42.3460664 67.78202213 40.96259396 66.31305716 39 64 C39 63.34 39 62.68 39 62 C38.443125 61.773125 37.88625 61.54625 37.3125 61.3125 C32.04772266 58.32438313 27.57645378 52.87921701 24 48 C24 47.34 24 46.68 24 46 C22.515 45.505 22.515 45.505 21 45 C19.39453125 42.93359375 19.39453125 42.93359375 17.8125 40.4375 C17.01779297 39.19806641 17.01779297 39.19806641 16.20703125 37.93359375 C15.80871094 37.29550781 15.41039062 36.65742188 15 36 C15.00523682 36.80743652 15.01047363 37.61487305 15.01586914 38.44677734 C15.03659929 42.08951038 15.04964749 45.73223102 15.0625 49.375 C15.07087891 50.64601562 15.07925781 51.91703125 15.08789062 53.2265625 C15.09111328 54.43828125 15.09433594 55.65 15.09765625 56.8984375 C15.10289307 58.01911621 15.10812988 59.13979492 15.11352539 60.29443359 C15 63 15 63 14 65 C13.34 65 12.68 65 12 65 C12 65.99 12 66.98 12 68 C9.1875 69.5625 9.1875 69.5625 6 71 C5.01 70.67 4.02 70.34 3 70 C1.46733418 66.93466836 1.89723529 63.73245728 1.9375 60.375 C1.94201172 59.66859375 1.94652344 58.9621875 1.95117188 58.234375 C1.96296125 56.48954725 1.98089676 54.744763 2 53 C2.66 53 3.32 53 4 53 C4.09087891 51.48019531 4.09087891 51.48019531 4.18359375 49.9296875 C4.26806704 48.57811486 4.35271157 47.22655291 4.4375 45.875 C4.47681641 45.20984375 4.51613281 44.5446875 4.55664062 43.859375 C4.81246639 39.84487842 5.33150466 35.96245224 6 32 C6.58684286 24.87130237 6.24933215 19.48506226 2.953125 13.1015625 C1.44871788 9.78446811 1.31132933 6.61142027 1 3 C0.67 2.01 0.34 1.02 0 0 Z " fill="#A3A6AA" transform="translate(286,110)"/>
<path d="M0 0 C1.65 0.33 3.3 0.66 5 1 C5.10213572 7.12814294 4.79984923 13.10158304 4.21875 19.203125 C3.95980648 21.97644963 3.95980648 21.97644963 4.03125 24.671875 C4 27 4 27 3 30 C3.01133054 32.43889777 3.10551096 34.87785965 3.25 37.3125 C3.31703125 38.60800781 3.3840625 39.90351563 3.453125 41.23828125 C4.31986734 47.20023033 6.58560628 50.99945569 11 55 C11.67869141 55.77150391 11.67869141 55.77150391 12.37109375 56.55859375 C15.40699895 59.24504224 19.08753561 59.09630682 23 59 C29.70192634 57.87294932 34.0637666 55.5660159 39 51 C39.66 51 40.32 51 41 51 C41.43119141 50.12794922 41.43119141 50.12794922 41.87109375 49.23828125 C42.57137014 47.84984398 43.28953722 46.47009226 44.03515625 45.10546875 C46.39316764 40.70324976 47.48637448 37.03353012 48 32 C48.495 31.505 48.495 31.505 49 31 C49.3005727 28.71296819 49.54003766 26.4178564 49.75390625 24.12109375 C49.81907944 23.4344313 49.88425262 22.74776886 49.95140076 22.04029846 C50.15928893 19.83973565 50.36095738 17.63865218 50.5625 15.4375 C50.70206573 13.94852939 50.84203442 12.45959649 50.98242188 10.97070312 C51.32629738 7.3142287 51.66459582 3.65726232 52 0 C57.7734375 1.8046875 57.7734375 1.8046875 59.8125 3.5625 C63.66263934 11.4654176 61.98075388 21.97628636 61.703125 30.56542969 C61.62519316 32.99398061 61.55793976 35.42265444 61.4921875 37.8515625 C61.27801816 45.27381529 61.00595555 52.63435934 60 60 C59.34 60 58.68 60 58 60 C57.67 60.99 57.34 61.98 57 63 C55.68 63 54.36 63 53 63 C51.6728739 59.0186217 51.93084087 55.14954773 52 51 C51.34 51 50.68 51 50 51 C49.67 51.99 49.34 52.98 49 54 C47.5625 55.6875 47.5625 55.6875 46 57 C45.34 57 44.68 57 44 57 C43.67 57.99 43.34 58.98 43 60 C35.15069442 66.40338087 25.95616204 68.6525432 15.9609375 68.33203125 C10.77070643 67.75001325 7.34065574 65.89377049 3 63 C3 62.34 3 61.68 3 61 C2.01 60.67 1.02 60.34 0 60 C-6.32846385 54.26482963 -7.02980582 44.06143167 -8 36 C-8.61046183 22.99574331 -8.49557765 10.51833423 0 0 Z M51 48 C52 50 52 50 52 50 Z " fill="#65696F" transform="translate(204,112)"/>
<path d="M0 0 C0.33 0 0.66 0 1 0 C1.03738281 0.60328125 1.07476562 1.2065625 1.11328125 1.828125 C1.17902344 2.62734375 1.24476563 3.4265625 1.3125 4.25 C1.37050781 5.03890625 1.42851562 5.8278125 1.48828125 6.640625 C2.13850116 9.63858549 2.66720928 10.96343667 5 13 C7.87038052 13.29561076 10.33754745 13.37943016 13.1875 13.25 C13.93708984 13.23195312 14.68667969 13.21390625 15.45898438 13.1953125 C17.3065371 13.14824109 19.15343159 13.07649766 21 13 C20.93683594 12.071875 20.87367188 11.14375 20.80859375 10.1875 C21 7 21 7 22.28515625 5.25 C24.18076611 3.91682383 25.82811152 2.82598848 28 2 C31.9375 2.6875 31.9375 2.6875 35 4 C35.495 5.98 35.495 5.98 36 8 C36.33 6.35 36.66 4.7 37 3 C38.98 2.34 40.96 1.68 43 1 C43.495 1.99 43.495 1.99 44 3 C44.66 3 45.32 3 46 3 C46.2475 3.598125 46.495 4.19625 46.75 4.8125 C47.87980389 7.13293213 47.87980389 7.13293213 50.125 8.5625 C51.053125 9.2740625 51.053125 9.2740625 52 10 C52 10.99 52 11.98 52 13 C49 15 49 15 47 16 C46.505 15.01 46.505 15.01 46 14 C46.01160156 14.64066406 46.02320313 15.28132812 46.03515625 15.94140625 C46.07768963 20.01853463 46.10222914 23.96901431 45.4375 28 C44.72024794 30.91683307 44.72024794 30.91683307 46 33 C46.268125 32.278125 46.53625 31.55625 46.8125 30.8125 C48.01261623 27.97011947 49.19186511 25.50357139 51 23 C53.1875 22.1875 53.1875 22.1875 55 22 C56.80874649 27.45084827 54.34731511 32.07345488 52.046875 37.0703125 C50.70073322 39.62370842 49.43088183 41.66965726 47.125 43.4375 C44.266746 44.19409665 41.94282335 44.31306631 39 44 C38.319375 43.2265625 38.319375 43.2265625 37.625 42.4375 C36.13016261 40.78399434 36.13016261 40.78399434 34.1484375 41.05859375 C32.73990324 41.26603243 31.33538234 41.50339205 29.9375 41.7734375 C28 42 28 42 25 41 C22.70096656 36.14896505 22.87042929 31.94076571 23.3125 26.75 C23.36083984 26.03070313 23.40917969 25.31140625 23.45898438 24.5703125 C23.84862637 19.30274725 23.84862637 19.30274725 25 17 C24.34 17.33 23.68 17.66 23 18 C23 18.99 23 19.98 23 21 C17.06 21.33 11.12 21.66 5 22 C5 22.66 5 23.32 5 24 C3.68 24 2.36 24 1 24 C1.52268466 21.23723823 2.10869587 18.6739124 3 16 C2.01 16 1.02 16 0 16 C0 10.72 0 5.44 0 0 Z M22 13 C21.67 13.99 21.34 14.98 21 16 C21.62648437 16.04898438 22.25296875 16.09796875 22.8984375 16.1484375 C24.12433594 16.26058594 24.12433594 16.26058594 25.375 16.375 C26.59316406 16.47941406 26.59316406 16.47941406 27.8359375 16.5859375 C30 17 30 17 32 19 C32.1875 22.0625 32.1875 22.0625 32 25 C31.67 25.33 31.34 25.66 31 26 C30.92820036 27.51928038 30.91607993 29.04167482 30.9375 30.5625 C30.94652344 31.38878906 30.95554688 32.21507812 30.96484375 33.06640625 C30.97644531 33.70449219 30.98804688 34.34257812 31 35 C34.12210839 33.43894581 34.67854711 31.1671185 36 28 C36.56915172 24.3491481 36.56915172 24.3491481 36.6875 20.625 C36.75324219 19.37976563 36.81898438 18.13453125 36.88671875 16.8515625 C36.92410156 15.91054687 36.96148437 14.96953125 37 14 C33.41672247 12.99782936 33.41672247 12.99782936 30 14 C27.30434798 13.83219837 24.67594446 13.38844355 22 13 Z M44 34 C45 36 45 36 45 36 Z " fill="#707377" transform="translate(127,132)"/>
<path d="M0 0 C0.23303408 7.22405653 -0.37175725 14.1609309 -1.28857422 21.31396484 C-2.74494721 30.35530804 -2.74494721 30.35530804 -1 39 C0.97180477 35.31358239 2.33116965 32.12445382 3 28 C3.33 27.01 3.66 26.02 4 25 C5.32 25.33 6.64 25.66 8 26 C9.99217384 30.9804346 7.61368635 35.50961887 5.6875 40.1875 C3.74951413 43.41747645 2.28411553 45.13402527 -1 47 C-4.75 46.875 -4.75 46.875 -8 46 C-8.33 45.34 -8.66 44.68 -9 44 C-9.556875 44.309375 -10.11375 44.61875 -10.6875 44.9375 C-13.18588008 46.08540436 -15.26339708 46.71932278 -18 47 C-18.99 46.34 -19.98 45.68 -21 45 C-18.36 44.67 -15.72 44.34 -13 44 C-13 43.34 -13 42.68 -13 42 C-15.31 42 -17.62 42 -20 42 C-19.77002126 39.62153567 -19.51678509 37.24938734 -19.25 34.875 C-19.188125 34.20984375 -19.12625 33.5446875 -19.0625 32.859375 C-18.46551104 27.7849688 -17.02740788 24.95039809 -14 21 C-18.14093698 20.79029441 -18.14093698 20.79029441 -22 22 C-21.505 20.515 -21.505 20.515 -21 19 C-18.45338565 18.04501962 -15.89398398 17.47470072 -13.25 16.84375 C-12.5075 16.5653125 -11.765 16.286875 -11 16 C-9.84429296 12.53287889 -9.67164707 9.4585044 -9.4375 5.8125 C-9.35371094 4.54019531 -9.26992188 3.26789063 -9.18359375 1.95703125 C-9.12300781 0.98121094 -9.06242187 0.00539062 -9 -1 C-5.28272326 -2.13583456 -3.52948291 -1.66670026 0 0 Z M-14 24 C-14.99 25.485 -14.99 25.485 -16 27 C-16.556875 27.8353125 -16.556875 27.8353125 -17.125 28.6875 C-18.4570725 32.20797732 -18.18179393 35.24292552 -18 39 C-17.67 39.66 -17.34 40.32 -17 41 C-14.98567734 40.49743888 -14.98567734 40.49743888 -13 39 C-11.29939729 34.57843296 -10.76997371 30.71553888 -11 26 C-11.66 26 -12.32 26 -13 26 C-13.33 25.34 -13.66 24.68 -14 24 Z " fill="#75797E" transform="translate(438,128)"/>
<path d="M0 0 C1.98 0 3.96 0 6 0 C6.33 1.32 6.66 2.64 7 4 C7.66 4 8.32 4 9 4 C10.17076699 7.98060777 11.25749403 11.91621717 12 16 C12.66 16 13.32 16 14 16 C14.39143394 17.74639757 14.76254287 19.49735918 15.125 21.25 C15.33382813 22.22453125 15.54265625 23.1990625 15.7578125 24.203125 C16 27 16 27 15.03881836 28.78735352 C13.68313406 31.67491329 13.69396746 34.01503582 13.62109375 37.19921875 C13.58693359 38.40900391 13.55277344 39.61878906 13.51757812 40.86523438 C13.49115234 42.12658203 13.46472656 43.38792969 13.4375 44.6875 C13.01008065 62.21169355 13.01008065 62.21169355 12 68 C9.125 70.125 9.125 70.125 6 71 C5.01 70.67 4.02 70.34 3 70 C1.46733418 66.93466836 1.89723529 63.73245728 1.9375 60.375 C1.94201172 59.66859375 1.94652344 58.9621875 1.95117188 58.234375 C1.96296125 56.48954725 1.98089676 54.744763 2 53 C2.66 53 3.32 53 4 53 C4.09087891 51.48019531 4.09087891 51.48019531 4.18359375 49.9296875 C4.26806704 48.57811486 4.35271157 47.22655291 4.4375 45.875 C4.47681641 45.20984375 4.51613281 44.5446875 4.55664062 43.859375 C4.81246639 39.84487842 5.33150466 35.96245224 6 32 C6.58684286 24.87130237 6.24933215 19.48506226 2.953125 13.1015625 C1.44871788 9.78446811 1.31132933 6.61142027 1 3 C0.67 2.01 0.34 1.02 0 0 Z " fill="#62666C" transform="translate(286,110)"/>
<path d="M0 0 C0.66 0 1.32 0 2 0 C3.29235715 4.91502758 3.11135517 9.77290102 3.0625 14.8125 C3.05798828 15.69615234 3.05347656 16.57980469 3.04882812 17.49023438 C3.03709866 19.66018559 3.01916495 21.83010172 3 24 C3.99 24 4.98 24 6 24 C5.83371094 24.65742188 5.66742188 25.31484375 5.49609375 25.9921875 C4.88031483 29.72565023 4.97878944 33.35844331 5.0625 37.125 C5.15088885 43.95966802 4.61407343 50.32753572 3 57 C-2.88461538 55.96153846 -2.88461538 55.96153846 -5 53 C-6.20924731 48.59899788 -6.11508317 44.21369725 -6.0625 39.6875 C-6.05798828 38.94693359 -6.05347656 38.20636719 -6.04882812 37.44335938 C-6.03712175 35.62887101 -6.01918898 33.81442466 -6 32 C-8.64 32 -11.28 32 -14 32 C-14.33 31.34 -14.66 30.68 -15 30 C-14.34 30 -13.68 30 -13 30 C-13.33 29.01 -13.66 28.02 -14 27 C-10.846632 26.29925156 -8.27275026 26 -5 26 C-5.09539062 24.94941406 -5.19078125 23.89882812 -5.2890625 22.81640625 C-5.92012785 15.12272127 -6.27399789 8.49081659 -4 1 C-3.34 1.66 -2.68 2.32 -2 3 C-1.34 2.01 -0.68 1.02 0 0 Z " fill="#5A5E63" transform="translate(124,124)"/>
<path d="M0 0 C2.31 0.66 4.62 1.32 7 2 C8.39797669 8.0548776 8.18419271 14.06536461 8.1875 20.25 C8.19974609 21.43980469 8.21199219 22.62960938 8.22460938 23.85546875 C8.23575355 30.57912166 7.76210572 36.50803155 6 43 C5.731875 43.99 5.46375 44.98 5.1875 46 C4 48 4 48 1.375 48.8125 C0.199375 48.9053125 0.199375 48.9053125 -1 49 C-2.29598729 44.12846517 -2.04859995 39.38588181 -1.9140625 34.39453125 C-1.89282318 33.47411545 -1.87158386 32.55369965 -1.84970093 31.60539246 C-1.80356328 29.66630501 -1.75464577 27.72728196 -1.703125 25.78833008 C-1.62500779 22.81279673 -1.55798422 19.83715665 -1.4921875 16.86132812 C-1.44597386 14.97654617 -1.39912106 13.09177975 -1.3515625 11.20703125 C-1.33171295 10.31434036 -1.3118634 9.42164948 -1.29141235 8.50190735 C-1.26823944 7.67732529 -1.24506653 6.85274323 -1.22119141 6.00317383 C-1.20263092 5.27657059 -1.18407043 4.54996735 -1.16494751 3.80134583 C-1 2 -1 2 0 0 Z " fill="#6A6D73" transform="translate(356,121)"/>
<path d="M0 0 C1.32 0.33 2.64 0.66 4 1 C4.66 3.64 5.32 6.28 6 9 C3.49046058 10.25476971 2.62766637 9.67810745 0 9 C-1.57073532 10.57073532 -1.16369307 12.15362218 -1.20532227 14.33618164 C-1.22526749 15.2570607 -1.24521271 16.17793976 -1.26576233 17.12672424 C-1.29083107 18.62827309 -1.29083107 18.62827309 -1.31640625 20.16015625 C-1.33718735 21.17975937 -1.35796844 22.19936249 -1.37937927 23.24986267 C-1.44498852 26.52067048 -1.50381234 29.79156137 -1.5625 33.0625 C-1.60567442 35.27409728 -1.64928834 37.48568603 -1.69335938 39.69726562 C-1.8006814 45.13142151 -1.90242623 50.56566082 -2 56 C-0.35 56 1.3 56 3 56 C3 54.68 3 53.36 3 52 C3.66 52.33 4.32 52.66 5 53 C4.34 54.98 3.68 56.96 3 59 C2.34 59 1.68 59 1 59 C0.9175 59.5775 0.835 60.155 0.75 60.75 C-0.58616097 64.75848291 -3.57816188 66.71877459 -7 69 C-9.77734375 69.3359375 -9.77734375 69.3359375 -12.9375 69.375 C-13.97777344 69.40335937 -15.01804687 69.43171875 -16.08984375 69.4609375 C-19.68426569 68.89161966 -20.79346875 67.83623738 -23 65 C-23.33 64.01 -23.66 63.02 -24 62 C-20.59177396 60.24091559 -18.12093575 59.96139947 -14.375 60.1875 C-12.07037379 60.30202769 -12.07037379 60.30202769 -10 60 C-7.92023288 57.83928533 -7.92023288 57.83928533 -7 55 C-6.66097656 54.42636719 -6.32195312 53.85273438 -5.97265625 53.26171875 C-4.64312207 50.17015131 -4.56219354 47.42158406 -4.375 44.0625 C-4.33632813 43.37591309 -4.29765625 42.68932617 -4.2578125 41.98193359 C-3.91980638 35.16899779 -3.94018606 28.35464317 -4.03662109 21.53540039 C-4.20652442 4.94097456 -4.20652442 4.94097456 0 0 Z " fill="#74787D" transform="translate(357,113)"/>
<path d="M0 0 C1.5625 1.25 1.5625 1.25 3 3 C3 5.89938057 1.86286402 7.18284797 0.125 9.5 C-6.5776304 15.68557034 -15.45193674 16.43914119 -24.15234375 16.23828125 C-26.56560549 16.03634851 -28.68579173 15.68589787 -31 15 C-31.80967438 12.08517222 -32.21845993 10.53886783 -31.0625 7.6875 C-30.711875 7.130625 -30.36125 6.57375 -30 6 C-26.52345218 5.93046904 -23.35308037 5.92794278 -19.9375 6.625 C-16.36784491 7.08070065 -14.36657657 6.21196757 -11 5 C-9.60648595 4.8513585 -8.21018714 4.72720747 -6.8125 4.625 C-2.97572752 4.38479262 -2.97572752 4.38479262 -1 1.9375 C-0.67 1.298125 -0.34 0.65875 0 0 Z " fill="#6E7176" transform="translate(244,164)"/>
<path d="M0 0 C7.22129784 0.36106489 7.22129784 0.36106489 10.4375 3 C12.50025187 6.96048359 12.80761952 10.584868 13 15 C6.5 19 6.5 19 2 19 C2.185625 19.556875 2.37125 20.11375 2.5625 20.6875 C3.07551165 23.399133 2.6640724 25.34371039 2 28 C-0.67927341 23.98108988 -0.15601248 21.75838077 0 17 C-0.66 16.67 -1.32 16.34 -2 16 C-2.625 13.4375 -2.625 13.4375 -3 11 C-4.09016409 14.53005515 -4.13344314 17.81878963 -4.125 21.5 C-4.12757813 22.6240625 -4.13015625 23.748125 -4.1328125 24.90625 C-4.02266367 27.4720699 -3.75270662 29.56266427 -3 32 C-5 30.515625 -5 30.515625 -7 28 C-7.23980034 25.06244581 -7.25516311 22.64508377 -7 19.75 C-6.94529541 18.99017822 -6.89059082 18.23035645 -6.83422852 17.44750977 C-6.32928227 11.86067888 -5.12113998 7.73205094 -2 3 C-1.34 3 -0.68 3 0 3 C0 2.01 0 1.02 0 0 Z M4 10 C3.67 10.66 3.34 11.32 3 12 C3.66 12 4.32 12 5 12 C4.67 11.34 4.34 10.68 4 10 Z " fill="#84878B" transform="translate(375,142)"/>
<path d="M0 0 C0.33 0 0.66 0 1 0 C1.03738281 0.60328125 1.07476562 1.2065625 1.11328125 1.828125 C1.17902344 2.62734375 1.24476563 3.4265625 1.3125 4.25 C1.37050781 5.03890625 1.42851562 5.8278125 1.48828125 6.640625 C2.14342658 9.66129506 2.62991595 10.96320902 5 13 C7.90949736 13.4929649 10.7475021 13.37541418 13.6875 13.25 C14.48478516 13.23195312 15.28207031 13.21390625 16.10351562 13.1953125 C18.06952449 13.14822247 20.03491494 13.07647899 22 13 C22 13.66 22 14.32 22 15 C24.97 15.33 27.94 15.66 31 16 C31 16.66 31 17.32 31 18 C28.36 18 25.72 18 23 18 C23 18.99 23 19.98 23 21 C17.06 21.33 11.12 21.66 5 22 C5 22.66 5 23.32 5 24 C3.68 24 2.36 24 1 24 C1.52268466 21.23723823 2.10869587 18.6739124 3 16 C2.01 16 1.02 16 0 16 C0 10.72 0 5.44 0 0 Z " fill="#72767B" transform="translate(127,132)"/>
<path d="M0 0 C0 3 0 3 -1.42578125 4.734375 C-3.5742437 7.82645495 -3.74034067 10.53513787 -4.1875 14.25 C-4.34605469 15.51328125 -4.50460937 16.7765625 -4.66796875 18.078125 C-4.77753906 19.04234375 -4.88710938 20.0065625 -5 21 C-3.02 21.33 -1.04 21.66 1 22 C1 22.66 1 23.32 1 24 C-1.97 24.33 -4.94 24.66 -8 25 C-10 21 -10 21 -10 18 C-10.99 17.67 -11.98 17.34 -13 17 C-13 14.37165722 -12.80210238 11.91813299 -12.5 9.3125 C-12.4071875 8.50425781 -12.314375 7.69601563 -12.21875 6.86328125 C-12.1465625 6.24839844 -12.074375 5.63351563 -12 5 C-11.34 5 -10.68 5 -10 5 C-9.67 4.01 -9.34 3.02 -9 2 C-5.5647952 -0.29013653 -4.014669 -0.17842973 0 0 Z " fill="#686B70" transform="translate(424,148)"/>
<path d="M0 0 C1.98 0 3.96 0 6 0 C6.33 1.32 6.66 2.64 7 4 C7.66 4 8.32 4 9 4 C10.17076699 7.98060777 11.25749403 11.91621717 12 16 C12.66 16 13.32 16 14 16 C14 17.32 14 18.64 14 20 C12.35 20.33 10.7 20.66 9 21 C8.93941406 21.96421875 8.87882812 22.9284375 8.81640625 23.921875 C8.73261719 25.18515625 8.64882813 26.4484375 8.5625 27.75 C8.48128906 29.00296875 8.40007812 30.2559375 8.31640625 31.546875 C8.07484478 34.18317553 7.75716066 36.48037294 7 39 C6.34 38.67 5.68 38.34 5 38 C5.165 37.2575 5.33 36.515 5.5 35.75 C6.60580664 27.45645022 6.84380423 20.63632861 2.953125 13.1015625 C1.44871788 9.78446811 1.31132933 6.61142027 1 3 C0.67 2.01 0.34 1.02 0 0 Z " fill="#919396" transform="translate(286,110)"/>
<path d="M0 0 C0.78682484 2.36047451 1.04267616 3.79614196 0.52734375 6.2578125 C-0.05912502 9.30745008 -0.06165534 12.0854659 0 15.1875 C0.11032028 20.77935943 0.11032028 20.77935943 -1 23 C-3.3125 23.3125 -3.3125 23.3125 -6 23 C-9.01191937 19.41504725 -9.28717425 16.52694652 -8.95703125 11.921875 C-8.88871094 11.20515625 -8.82039062 10.4884375 -8.75 9.75 C-8.69714844 9.0178125 -8.64429688 8.285625 -8.58984375 7.53125 C-8.16231766 2.16231766 -8.16231766 2.16231766 -7 1 C-4.67182036 0.63239269 -2.3381615 0.29758419 0 0 Z " fill="#64686D" transform="translate(159,149)"/>
<path d="M0 0 C2 2 2 2 3.4375 4.4375 C4.84569425 6.97331093 4.84569425 6.97331093 6.625 8.625 C8 10 8 10 9 13 C8.34 13.66 7.68 14.32 7 15 C6.60235737 16.98821313 6.26224651 18.98944339 6 21 C3.5625 20.1875 3.5625 20.1875 1 19 C0.67 18.01 0.34 17.02 0 16 C-0.99 15.67 -1.98 15.34 -3 15 C-7 10.54285714 -7 10.54285714 -7 8 C-5.68 8 -4.36 8 -3 8 C-1.22809091 6.64555699 -1.22809091 6.64555699 0 5 C0 4.67 0 4.34 0 4 C0 2.68 0 1.36 0 0 Z " fill="#808488" transform="translate(207,157)"/>
<path d="M0 0 C2.5570851 2.22355226 3.24170912 3.75018193 4 7 C4.66 7.33 5.32 7.66 6 8 C6.66666667 9.33333333 7.33333333 10.66666667 8 12 C9.5412312 13.70921589 9.5412312 13.70921589 11 15 C10.67 15.66 10.34 16.32 10 17 C8.68 16.34 7.36 15.68 6 15 C5.34 16.32 4.68 17.64 4 19 C2.68 17.35 1.36 15.7 0 14 C0.00523682 14.80743652 0.01047363 15.61487305 0.01586914 16.44677734 C0.03659929 20.08951038 0.04964749 23.73223102 0.0625 27.375 C0.07087891 28.64601562 0.07925781 29.91703125 0.08789062 31.2265625 C0.09111328 32.43828125 0.09433594 33.65 0.09765625 34.8984375 C0.10289307 36.01911621 0.10812988 37.13979492 0.11352539 38.29443359 C0 41 0 41 -1 43 C-1.66 43 -2.32 43 -3 43 C-2.90632155 38.23077702 -2.80019614 33.4620531 -2.68261719 28.69335938 C-2.64437642 27.07169141 -2.60951497 25.44994004 -2.578125 23.828125 C-2.53236743 21.49448883 -2.47439184 19.16142438 -2.4140625 16.828125 C-2.40251129 16.10506165 -2.39096008 15.38199829 -2.37905884 14.63702393 C-2.26969973 10.89220904 -1.88942726 8.23767596 0 5 C0.16750414 2.33290931 0.16750414 2.33290931 0 0 Z " fill="#929498" transform="translate(301,132)"/>
<path d="M0 0 C1.32 0.33 2.64 0.66 4 1 C5.99217384 5.9804346 3.61368635 10.50961887 1.6875 15.1875 C-0.25048587 18.41747645 -1.71588447 20.13402527 -5 22 C-8.8125 21.75 -8.8125 21.75 -12 21 C-11.67 20.34 -11.34 19.68 -11 19 C-9.68 19.33 -8.36 19.66 -7 20 C-7 19.01 -7 18.02 -7 17 C-7 15.33333333 -7 13.66666667 -7 12 C-6.34 12.66 -5.68 13.32 -5 14 C-3.02819523 10.31358239 -1.66883035 7.12445382 -1 3 C-0.67 2.01 -0.34 1.02 0 0 Z " fill="#A3A3A5" transform="translate(442,153)"/>
<path d="M0 0 C0.9075 0.185625 1.815 0.37125 2.75 0.5625 C5.84152389 1.2034701 5.84152389 1.2034701 8.125 0.375 C10 0 10 0 12.25 1.4375 C12.8275 1.953125 13.405 2.46875 14 3 C13.25 9.625 13.25 9.625 11 13 C10.4225 12.62875 9.845 12.2575 9.25 11.875 C7 10.70833333 7 10.70833333 4.75 11.875 C4.1725 12.24625 3.595 12.6175 3 13 C1.44655141 11.44655141 1.69480726 9.77483728 1.5 7.625 C1.24478838 4.82678686 0.8972983 2.69189489 0 0 Z " fill="#E9FDFD" transform="translate(139,190)"/>
<path d="M0 0 C1 4 1 4 1 4 Z M-4 3 C-2.0625 3.375 -2.0625 3.375 0 4 C0.33 4.66 0.66 5.32 1 6 C1.66 5.34 2.32 4.68 3 4 C4 5 4 5 4.09765625 7.94140625 C4.08605469 9.13636719 4.07445312 10.33132812 4.0625 11.5625 C4.05347656 12.76003906 4.04445313 13.95757812 4.03515625 15.19140625 C4.02355469 16.11824219 4.01195312 17.04507813 4 18 C3.67 18 3.34 18 3 18 C3 15.36 3 12.72 3 10 C2.34 10 1.68 10 1 10 C0.67 10.99 0.34 11.98 0 13 C-1.4375 14.6875 -1.4375 14.6875 -3 16 C-3.66 16 -4.32 16 -5 16 C-5.33 16.99 -5.66 17.98 -6 19 C-6.66 18.67 -7.32 18.34 -8 18 C-7.79375 17.38125 -7.5875 16.7625 -7.375 16.125 C-7.25125 15.42375 -7.1275 14.7225 -7 14 C-7.66 13.34 -8.32 12.68 -9 12 C-9.99 13.32 -10.98 14.64 -12 16 C-13.32 15.67 -14.64 15.34 -16 15 C-10.25 10 -10.25 10 -8 10 C-7.71125 9.401875 -7.4225 8.80375 -7.125 8.1875 C-6 6 -6 6 -4 3 Z M2 7 C3 9 3 9 3 9 Z " fill="#919497" transform="translate(253,153)"/>
<path d="M0 0 C0.598125 0.226875 1.19625 0.45375 1.8125 0.6875 C1.53019203 8.16866133 -1.37094183 13.33824114 -5.1875 19.6875 C-7.1875 19.6875 -7.1875 19.6875 -8.875 18.5 C-10.1875 16.6875 -10.1875 16.6875 -10.0625 14.25 C-9.14124732 11.55204573 -7.88430968 9.94991291 -6.1875 7.6875 C-6.0225 6.841875 -5.8575 5.99625 -5.6875 5.125 C-4.96701862 1.61265325 -3.82401954 -0.54628851 0 0 Z " fill="#86898B" transform="translate(181.1875,154.3125)"/>
<path d="M0 0 C2 3 2 3 3 6 C3.33 4.35 3.66 2.7 4 1 C4.99 1 5.98 1 7 1 C7.59217644 4.01237582 8.04241949 6.92458712 8 10 C5.85065086 13.07049877 4.54925112 13.81691629 1 15 C1 14.34 1 13.68 1 13 C0.34 13 -0.32 13 -1 13 C-2.71928713 10.37050204 -3.01045637 9.12809053 -2.75 5.9375 C-2 3 -2 3 0 0 Z M2 7 C3 9 3 9 3 9 Z " fill="#ADE1DD" transform="translate(289,189)"/>
<path d="M0 0 C0.33 0.66 0.66 1.32 1 2 C2.66500443 2.34153937 4.33178677 2.67449498 6 3 C8 5 8 5 8.1953125 6.9453125 C8.13020833 8.96354167 8.06510417 10.98177083 8 13 C5 14 5 14 2 13 C1.01 13.33 0.02 13.66 -1 14 C-2.23887548 11.52224905 -2.16741669 9.76346293 -2.1875 7 C-2.20167969 6.113125 -2.21585937 5.22625 -2.23046875 4.3125 C-2 2 -2 2 0 0 Z " fill="#DEF8F8" transform="translate(404,189)"/>
<path d="M0 0 C0.66 0.33 1.32 0.66 2 1 C2.55859375 3.13671875 2.55859375 3.13671875 3 6 C3.17660156 7.09957031 3.35320312 8.19914063 3.53515625 9.33203125 C3.79619141 11.05486328 3.79619141 11.05486328 4.0625 12.8125 C4.23910156 13.97394531 4.41570312 15.13539063 4.59765625 16.33203125 C4.79681641 17.65267578 4.79681641 17.65267578 5 19 C6.65 19 8.3 19 10 19 C8.68 19.33 7.36 19.66 6 20 C6 20.66 6 21.32 6 22 C3.125 21.75 3.125 21.75 0 21 C-2.38298263 17.68591819 -2.26826369 14.48148541 -2.25 10.5 C-2.25515625 9.3759375 -2.2603125 8.251875 -2.265625 7.09375 C-2.01284295 4.14958257 -1.53364541 2.48304495 0 0 Z " fill="#575B62" transform="translate(372,153)"/>
<path d="M0 0 C4.51858191 0.27385345 7.27970875 2.2395582 10.54296875 5.17578125 C13.09461035 8.3704639 13.06721235 10.96725887 13 15 C12.34 15.66 11.68 16.32 11 17 C8.95880212 15.38405168 6.95927063 13.7143618 5 12 C5 11.34 5 10.68 5 10 C4.01 9.67 3.02 9.34 2 9 C1.26953125 6.93359375 1.26953125 6.93359375 0.8125 4.4375 C0.65394531 3.61121094 0.49539063 2.78492188 0.33203125 1.93359375 C0.16767578 0.97646484 0.16767578 0.97646484 0 0 Z " fill="#76797D" transform="translate(305,146)"/>
<path d="M0 0 C0.33 0.66 0.66 1.32 1 2 C3.32156597 2.40729228 5.6568787 2.74438677 8 3 C7.8864371 4.64666203 7.75882619 6.29236082 7.625 7.9375 C7.55539062 8.85402344 7.48578125 9.77054688 7.4140625 10.71484375 C7.27742188 11.46894531 7.14078125 12.22304687 7 13 C3.79937313 14.60031344 1.27728194 13.03173691 -2 12 C-3.41004294 7.0648497 -2.21701873 4.43403746 0 0 Z " fill="#D1F2F4" transform="translate(259,189)"/>
<path d="M0 0 C1.32 0.33 2.64 0.66 4 1 C4.66 3.64 5.32 6.28 6 9 C3.49046058 10.25476971 2.62766637 9.67810745 0 9 C-1.95029395 10.95029395 -1.23092545 14.65617785 -1.28125 17.32421875 C-1.29965942 18.06323929 -1.31806885 18.80225983 -1.33703613 19.56367493 C-1.39595401 21.93819997 -1.44863179 24.31280039 -1.5 26.6875 C-1.5515551 29.04433882 -1.60461554 31.40108575 -1.66296387 33.75776672 C-1.69929727 35.2257614 -1.73180001 36.69385749 -1.7598877 38.16203308 C-1.85945784 42.19441393 -2.23594924 46.03938666 -3 50 C-3.33 50 -3.66 50 -4 50 C-4.02493791 45.05615597 -4.04297138 40.11234952 -4.05493164 35.16845703 C-4.05992396 33.49071616 -4.06672015 31.81297955 -4.07543945 30.13525391 C-4.20252962 5.03120735 -4.20252962 5.03120735 0 0 Z " fill="#ADAFB2" transform="translate(357,113)"/>
<path d="M0 0 C2.875 0.625 2.875 0.625 6 2 C7.48803528 4.97607056 8.08157256 6.99393844 7.8125 10.3125 C7.544375 10.869375 7.27625 11.42625 7 12 C4 13 4 13 1 13 C-1.25 11.4375 -1.25 11.4375 -3 9 C-2.78571429 2.78571429 -2.78571429 2.78571429 0 0 Z " fill="#DDF8F8" transform="translate(337,190)"/>
<path d="M0 0 C3.4375 0.8125 3.4375 0.8125 7 2 C8 5 8 5 7.4375 7.5625 C7.293125 8.366875 7.14875 9.17125 7 10 C7.66 10.66 8.32 11.32 9 12 C8 13 8 13 4.4375 13.0625 C3.303125 13.041875 2.16875 13.02125 1 13 C0.67 13.66 0.34 14.32 0 15 C-1.78387338 9.85824731 -2.200503 6.45683182 -1 1 C-0.67 0.67 -0.34 0.34 0 0 Z " fill="#AFE6E6" transform="translate(161,189)"/>
<path d="M0 0 C1.134375 0.020625 2.26875 0.04125 3.4375 0.0625 C5.22891434 3.64532868 4.26141494 7.27249128 3.4375 11.0625 C0.23687313 12.66281344 -2.28521806 11.09423691 -5.5625 10.0625 C-5.5625 9.4025 -5.5625 8.7425 -5.5625 8.0625 C-6.2225 7.7325 -6.8825 7.4025 -7.5625 7.0625 C-7.2325 6.4025 -6.9025 5.7425 -6.5625 5.0625 C-5.9025 5.3925 -5.2425 5.7225 -4.5625 6.0625 C-4.583125 5.258125 -4.60375 4.45375 -4.625 3.625 C-4.52750049 -0.37247981 -4.13731851 0.07258454 0 0 Z " fill="#94D5D3" transform="translate(357.5625,190.9375)"/>
<path d="M0 0 C1.5625 1.25 1.5625 1.25 3 3 C3 6.05243087 1.7509257 7.32233144 -0.125 9.75 C-3.67140255 12.52544547 -5.6057696 12.4308069 -10 12 C-10.33 12.66 -10.66 13.32 -11 14 C-12.65 13.67 -14.3 13.34 -16 13 C-15 11 -15 11 -12.0625 9.5625 C-8.78256825 8.20367158 -8.78256825 8.20367158 -7 5 C-6.360625 4.855625 -5.72125 4.71125 -5.0625 4.5625 C-2.28387305 3.80469265 -1.52370913 2.36174914 0 0 Z " fill="#60646A" transform="translate(244,164)"/>
<path d="M0 0 C0.99 0.33 1.98 0.66 3 1 C2.979375 2.0725 2.95875 3.145 2.9375 4.25 C2.85060093 7.77099956 2.85060093 7.77099956 3.5625 10.1875 C4.10021722 12.41518561 3.69281526 13.84457475 3 16 C2.34 16 1.68 16 1 16 C1 15.34 1 14.68 1 14 C-0.32 14.33 -1.64 14.66 -3 15 C-4.0625 13.1875 -4.0625 13.1875 -5 11 C-4.67 10.01 -4.34 9.02 -4 8 C-4.66 8 -5.32 8 -6 8 C-6 7.34 -6 6.68 -6 6 C-5.34 6 -4.68 6 -4 6 C-4 5.01 -4 4.02 -4 3 C-2.7934375 3.0309375 -2.7934375 3.0309375 -1.5625 3.0625 C0.93354885 3.29633621 0.93354885 3.29633621 2 2 C0.68 1.67 -0.64 1.34 -2 1 C-1.34 0.67 -0.68 0.34 0 0 Z " fill="#9DDAD9" transform="translate(194,188)"/>
<path d="M0 0 C2.71631546 0.90543849 5.34771188 1.92474806 8 3 C8.3125 6.3125 8.3125 6.3125 8 10 C5.39341685 12.1134458 3.1744041 12.9418653 0 14 C-0.99 10.7 -1.98 7.4 -3 4 C-2.34 3.67 -1.68 3.34 -1 3 C-0.67 2.01 -0.34 1.02 0 0 Z " fill="#E0F9FA" transform="translate(319,189)"/>
<path d="M0 0 C2.00720923 0.28674418 4.0085944 0.61866701 6 1 C6.36109542 2.64432706 6.71370076 4.2905208 7.0625 5.9375 C7.25972656 6.85402344 7.45695312 7.77054688 7.66015625 8.71484375 C7.77230469 9.46894531 7.88445312 10.22304687 8 11 C7 12 7 12 3.9375 12.0625 C2.968125 12.041875 1.99875 12.02125 1 12 C0.67 12.66 0.34 13.32 0 14 C-1 13 -1 13 -1.1328125 10.3125 C-1.13023437 9.219375 -1.12765625 8.12625 -1.125 7 C-1.12757813 5.906875 -1.13015625 4.81375 -1.1328125 3.6875 C-1 1 -1 1 0 0 Z " fill="#B0E6E4" transform="translate(387,190)"/>
<path d="M0 0 C1.93108687 2.14565207 2.44890731 3.01188769 2.6875 5.875 C2.41436657 8.21614367 2.08947001 10.55250658 1.6875 12.875 C0.25805055 10.52061267 -0.39911261 9.39467567 0.0625 6.625 C0.26875 6.0475 0.475 5.47 0.6875 4.875 C0.0275 4.875 -0.6325 4.875 -1.3125 4.875 C-1.3125 7.515 -1.3125 10.155 -1.3125 12.875 C-2.3025 13.205 -3.2925 13.535 -4.3125 13.875 C-4.79358275 12.45898286 -5.27228141 11.04215563 -5.75 9.625 C-6.01683594 8.83609375 -6.28367188 8.0471875 -6.55859375 7.234375 C-7.23204708 5.12678012 -7.80400595 3.02746027 -8.3125 0.875 C-2.95597826 -1.43804348 -2.95597826 -1.43804348 0 0 Z " fill="#93D0D0" transform="translate(213.3125,190.125)"/>
<path d="M0 0 C0.66 0.33 1.32 0.66 2 1 C1.33989524 3.84550012 0.48275034 6.52325999 -0.5625 9.25 C-0.83191406 9.95640625 -1.10132813 10.6628125 -1.37890625 11.390625 C-1.58386719 11.92171875 -1.78882813 12.4528125 -2 13 C-3.32 12.67 -4.64 12.34 -6 12 C-6.33 9.69 -6.66 7.38 -7 5 C-7.66 5 -8.32 5 -9 5 C-8.625 3.0625 -8.625 3.0625 -8 1 C-5.26094655 -0.36952673 -3.02912668 -0.12621361 0 0 Z " fill="#C1E9E8" transform="translate(132,190)"/>
<path d="M0 0 C3.465 1.485 3.465 1.485 7 3 C7 3.66 7 4.32 7 5 C6.401875 5.103125 5.80375 5.20625 5.1875 5.3125 C2.67142032 6.1032679 1.76245654 7.08428637 0 9 C-3.44450737 11.29633824 -5.93812283 11.54016485 -10 12 C-10.99 10.68 -11.98 9.36 -13 8 C-10.03 8.495 -10.03 8.495 -7 9 C-7.33 7.35 -7.66 5.7 -8 4 C-7.236875 3.896875 -6.47375 3.79375 -5.6875 3.6875 C-2.82940576 2.95635961 -1.84257115 2.23048087 0 0 Z " fill="#9C9EA3" transform="translate(385,166)"/>
<path d="M0 0 C0 0.66 0 1.32 0 2 C-0.99 2 -1.98 2 -3 2 C-2.67 2.99 -2.34 3.98 -2 5 C-3.4375 7.1875 -3.4375 7.1875 -5 9 C-5.33 8.67 -5.66 8.34 -6 8 C-6.45375 8.825 -6.9075 9.65 -7.375 10.5 C-7.91125 11.325 -8.4475 12.15 -9 13 C-9.66 13 -10.32 13 -11 13 C-11.33 13.66 -11.66 14.32 -12 15 C-11.744398 13.06043186 -11.46995354 11.12334011 -11.1875 9.1875 C-11.03667969 8.10855469 -10.88585937 7.02960938 -10.73046875 5.91796875 C-9.97272062 2.89102836 -9.48190329 1.80884477 -7 0 C-3.86650268 -1.04449911 -3.01031744 -0.93423645 0 0 Z " fill="#606268" transform="translate(404,143)"/>
<path d="M0 0 C0 0.66 0 1.32 0 2 C-10.395 2.99 -10.395 2.99 -21 4 C-20.67 4.99 -20.34 5.98 -20 7 C-7.13 7.495 -7.13 7.495 6 8 C6 8.33 6 8.66 6 9 C2.06739056 9.07421454 -1.86494722 9.12863136 -5.7980957 9.16479492 C-7.79327701 9.18728333 -9.78826213 9.22540198 -11.78320312 9.26367188 C-13.03681641 9.27333984 -14.29042969 9.28300781 -15.58203125 9.29296875 C-16.73936768 9.3086792 -17.8967041 9.32438965 -19.08911133 9.34057617 C-22 9 -22 9 -23.90112305 7.48168945 C-24.26375244 6.99273193 -24.62638184 6.50377441 -25 6 C-23.37516059 3.29009834 -22.48945351 2.15793629 -19.43359375 1.171875 C-12.90574329 0.25269918 -6.59328391 -0.2625644 0 0 Z " fill="#C6CACC" transform="translate(113,117)"/>
<path d="M0 0 C2.00720923 0.28674418 4.0085944 0.61866701 6 1 C6.93065133 3.60582371 7.14917407 4.64198224 6.0625 7.25 C5.711875 7.8275 5.36125 8.405 5 9 C4.34 9 3.68 9 3 9 C2.34 10.32 1.68 11.64 1 13 C0.34 12.67 -0.32 12.34 -1 12 C-1.02687279 10.18757948 -1.04633715 8.37504767 -1.0625 6.5625 C-1.07410156 5.55316406 -1.08570313 4.54382813 -1.09765625 3.50390625 C-1 1 -1 1 0 0 Z " fill="#95D4D1" transform="translate(371,190)"/>
<path d="M0 0 C0.66 0.99 1.32 1.98 2 3 C1.67 3.99 1.34 4.98 1 6 C0.34 6 -0.32 6 -1 6 C-1.12375 7.134375 -1.2475 8.26875 -1.375 9.4375 C-1.58125 10.613125 -1.7875 11.78875 -2 13 C-2.99 13.495 -2.99 13.495 -4 14 C-4.45375 12.7625 -4.9075 11.525 -5.375 10.25 C-6.4384007 7.40754505 -7.55192483 4.67336954 -9 2 C-6.50935112 1.31292445 -4.62113708 1 -2 1 C-1.34 0.67 -0.68 0.34 0 0 Z " fill="#9EDFDB" transform="translate(231,190)"/>
<path d="M0 0 C2.475 0.99 2.475 0.99 5 2 C5 2.66 5 3.32 5 4 C6.24716797 4.09087891 6.24716797 4.09087891 7.51953125 4.18359375 C9.14955078 4.30927734 9.14955078 4.30927734 10.8125 4.4375 C11.89144531 4.51871094 12.97039062 4.59992188 14.08203125 4.68359375 C17 5 17 5 20 6 C19 7 19 7 16.56640625 7.02734375 C14.56632431 6.96752335 12.5663205 6.90503 10.56640625 6.83984375 C7.83255296 6.72631858 7.83255296 6.72631858 6 9 C6.32041397 11.60280568 6.32041397 11.60280568 7 14 C6.34 13.67 5.68 13.34 5 13 C4.38125 12.731875 3.7625 12.46375 3.125 12.1875 C0.63574756 10.79644717 -1.06250007 9.07589278 -3 7 C-2.67 6.34 -2.34 5.68 -2 5 C-0.35 5.33 1.3 5.66 3 6 C3.33 5.01 3.66 4.02 4 3 C2.68 2.67 1.36 2.34 0 2 C0 1.34 0 0.68 0 0 Z " fill="#A7A9AA" transform="translate(328,167)"/>
<path d="M0 0 C0.66 0.33 1.32 0.66 2 1 C2.40729228 3.32156597 2.74438677 5.6568787 3 8 C5.475 8.99 5.475 8.99 8 10 C7.67 10.66 7.34 11.32 7 12 C4.67843403 12.40729228 2.3431213 12.74438677 0 13 C-1.96851224 11.11022825 -2.98222331 9.76291612 -3.046875 6.98828125 C-2.8125 4.8125 -2.8125 4.8125 -2 1 C-1.34 0.67 -0.68 0.34 0 0 Z " fill="#AEE3E2" transform="translate(243,190)"/>
<path d="M0 0 C2 0.875 2 0.875 4 2 C4.66 2.33 5.32 2.66 6 3 C6 3.66 6 4.32 6 5 C7.32 5.33 8.64 5.66 10 6 C9.67 7.32 9.34 8.64 9 10 C5.65626525 9.44271087 2.96687001 8.64826111 0 7 C0.33 5.68 0.66 4.36 1 3 C0.01 3.33 -0.98 3.66 -2 4 C-2 3.01 -2 2.02 -2 1 C-1.34 0.67 -0.68 0.34 0 0 Z " fill="#585C62" transform="translate(322,164)"/>
<path d="M0 0 C1.32 0 2.64 0 4 0 C4 0.66 4 1.32 4 2 C3.34 2 2.68 2 2 2 C2 2.66 2 3.32 2 4 C4.31 4 6.62 4 9 4 C9 10.27 9 16.54 9 23 C8.34 22.67 7.68 22.34 7 22 C7 16.72 7 11.44 7 6 C4.36 6 1.72 6 -1 6 C-1.33 5.34 -1.66 4.68 -2 4 C-1.34 4 -0.68 4 0 4 C-0.33 3.01 -0.66 2.02 -1 1 C-0.67 0.67 -0.34 0.34 0 0 Z " fill="#8C8E92" transform="translate(111,150)"/>
<path d="M0 0 C1.60031344 3.20062687 0.03173691 5.72271806 -1 9 C-0.34 9 0.32 9 1 9 C0.4375 10.9375 0.4375 10.9375 -1 13 C-7.14634146 14.42682927 -7.14634146 14.42682927 -10 13 C-9.67 12.34 -9.34 11.68 -9 11 C-7.02 11.495 -7.02 11.495 -5 12 C-5 11.01 -5 10.02 -5 9 C-5 7.33333333 -5 5.66666667 -5 4 C-4.34 4.66 -3.68 5.32 -3 6 C-2.01 4.02 -1.02 2.04 0 0 Z " fill="#979B9E" transform="translate(440,161)"/>
<path d="M0 0 C-0.33 0.99 -0.66 1.98 -1 3 C-1.99 2.67 -2.98 2.34 -4 2 C-4.12375 2.598125 -4.2475 3.19625 -4.375 3.8125 C-5 6 -5 6 -7 9 C-7.99 9 -8.98 9 -10 9 C-9.68143549 6.99759451 -9.34578768 4.99788438 -9 3 C-8.87625 2.236875 -8.7525 1.47375 -8.625 0.6875 C-8.41875 0.130625 -8.2125 -0.42625 -8 -1 C-4.37673261 -2.2077558 -3.35853631 -1.54311128 0 0 Z M-8 3 C-7 5 -7 5 -7 5 Z " fill="#A5A9AD" transform="translate(409,146)"/>
<path d="M0 0 C1.0625 1.8125 1.0625 1.8125 2 4 C1.67 4.99 1.34 5.98 1 7 C0.85164052 8.77166975 0.75229982 10.54767612 0.68359375 12.32421875 C0.64169922 13.35224609 0.59980469 14.38027344 0.55664062 15.43945312 C0.51732422 16.51130859 0.47800781 17.58316406 0.4375 18.6875 C0.39431641 19.77095703 0.35113281 20.85441406 0.30664062 21.97070312 C0.20053162 24.64700791 0.09847639 27.32340526 0 30 C-0.33 30 -0.66 30 -1 30 C-2.60565302 20.01926082 -3.16855486 9.70369927 0 0 Z " fill="#D2D3D4" transform="translate(198,125)"/>
<path d="M0 0 C1.66611905 -0.042721 3.33382885 -0.04063832 5 0 C7.04698414 2.04698414 6.70045693 6.30411241 7 9 C6.01 8.67 5.02 8.34 4 8 C4 7.34 4 6.68 4 6 C3.34 6 2.68 6 2 6 C2 6.99 2 7.98 2 9 C1.34 9 0.68 9 0 9 C0 6.03 0 3.06 0 0 Z " fill="#59B3B1" transform="translate(403,192)"/>
<path d="M0 0 C2.31 0 4.62 0 7 0 C7 0.66 7 1.32 7 2 C5.68 2 4.36 2 3 2 C3 2.66 3 3.32 3 4 C3.99 4.33 4.98 4.66 6 5 C5.01 5 4.02 5 3 5 C3 5.99 3 6.98 3 8 C4.32 8.33 5.64 8.66 7 9 C4.69 9 2.38 9 0 9 C-0.84454356 5.62182575 -1.10844919 3.32534757 0 0 Z " fill="#8BD0CE" transform="translate(257,192)"/>
<path d="M0 0 C0.66 0 1.32 0 2 0 C2 1.32 2 2.64 2 4 C3.32 4 4.64 4 6 4 C6 2.68 6 1.36 6 0 C6.66 0 7.32 0 8 0 C8 2.97 8 5.94 8 9 C7.34 9 6.68 9 6 9 C6 8.01 6 7.02 6 6 C4.68 6 3.36 6 2 6 C2 6.99 2 7.98 2 9 C1.34 9 0.68 9 0 9 C0 6.03 0 3.06 0 0 Z " fill="#63B3B3" transform="translate(142,192)"/>
<path d="M0 0 C1.93108687 2.14565207 2.44890731 3.01188769 2.6875 5.875 C2.41436657 8.21614367 2.08947001 10.55250658 1.6875 12.875 C0.25805055 10.52061267 -0.39911261 9.39467567 0.0625 6.625 C0.26875 6.0475 0.475 5.47 0.6875 4.875 C0.0275 4.875 -0.6325 4.875 -1.3125 4.875 C-1.3125 6.855 -1.3125 8.835 -1.3125 10.875 C-1.6425 10.875 -1.9725 10.875 -2.3125 10.875 C-2.3125 8.565 -2.3125 6.255 -2.3125 3.875 C-1.6525 3.875 -0.9925 3.875 -0.3125 3.875 C-0.3125 3.215 -0.3125 2.555 -0.3125 1.875 C-2.6225 1.875 -4.9325 1.875 -7.3125 1.875 C-7.6425 2.535 -7.9725 3.195 -8.3125 3.875 C-8.3125 2.885 -8.3125 1.895 -8.3125 0.875 C-2.95597826 -1.43804348 -2.95597826 -1.43804348 0 0 Z " fill="#F2FEFD" transform="translate(213.3125,190.125)"/>
<path d="M0 0 C2.31 0 4.62 0 7 0 C8.35055201 2.70110402 8 5.00789006 8 8 C6.02 8.33 4.04 8.66 2 9 C2.04125 7.88625 2.0825 6.7725 2.125 5.625 C2.41121859 1.95633975 2.41121859 1.95633975 0 0 Z " fill="#DAF6F7" transform="translate(354,191)"/>
<path d="M0 0 C0.66 1.32 1.32 2.64 2 4 C2.33 3.34 2.66 2.68 3 2 C3.66 2 4.32 2 5 2 C5.33 1.34 5.66 0.68 6 0 C6 4.24645065 4.18249194 6.38524772 2 10 C0 10 0 10 -1.6875 8.8125 C-3 7 -3 7 -2.8125 4.4375 C-2 2 -2 2 0 0 Z " fill="#999C9E" transform="translate(174,164)"/>
<path d="M0 0 C2.97 0.495 2.97 0.495 6 1 C6 3.64 6 6.28 6 9 C4 9 4 9 2.375 7.5 C1.92125 7.005 1.4675 6.51 1 6 C0.67 6.99 0.34 7.98 0 9 C0 6.03 0 3.06 0 0 Z " fill="#6BC8C4" transform="translate(337,192)"/>
<path d="M0 0 C0.33 0.66 0.66 1.32 1 2 C3.12576782 2.46651207 3.12576782 2.46651207 5.5625 2.625 C6.38878906 2.69976562 7.21507812 2.77453125 8.06640625 2.8515625 C8.70449219 2.90054688 9.34257812 2.94953125 10 3 C10 3.66 10 4.32 10 5 C7.36 5 4.72 5 2 5 C2 5.99 2 6.98 2 8 C-0.64 8 -3.28 8 -6 8 C-4.68 7.34 -3.36 6.68 -2 6 C-2.33 5.01 -2.66 4.02 -3 3 C-2.01 2.01 -1.02 1.02 0 0 Z " fill="#B6B8BA" transform="translate(148,145)"/>
<path d="M0 0 C0.33 1.65 0.66 3.3 1 5 C0.01 4.67 -0.98 4.34 -2 4 C-3.175625 5.2375 -3.175625 5.2375 -4.375 6.5 C-7 9 -7 9 -9 9 C-8.67 7.35 -8.34 5.7 -8 4 C-7.34 4 -6.68 4 -6 4 C-6 3.34 -6 2.68 -6 2 C-3 0 -3 0 0 0 Z " fill="#838589" transform="translate(414,166)"/>
<path d="M0 0 C0.33 0 0.66 0 1 0 C1.45572917 2.01822917 1.91145833 4.03645833 2.3671875 6.0546875 C2.90474428 8.20719964 2.90474428 8.20719964 5 10 C5 10.99 5 11.98 5 13 C3.02 13 1.04 13 -1 13 C-1.33 9.7 -1.66 6.4 -2 3 C-1.34 3 -0.68 3 0 3 C0 2.01 0 1.02 0 0 Z " fill="#575A5D" transform="translate(169,162)"/>
<path d="M0 0 C5.75 1.75 5.75 1.75 8 4 C7.625 6.125 7.625 6.125 7 8 C4.69 7.34 2.38 6.68 0 6 C0 4.02 0 2.04 0 0 Z " fill="#929499" transform="translate(256,112)"/>
<path d="M0 0 C1.65 0.99 3.3 1.98 5 3 C4.74438677 5.3431213 4.40729228 7.67843403 4 10 C3.01 10.495 3.01 10.495 2 11 C1.67 9.35 1.34 7.7 1 6 C0.34 6 -0.32 6 -1 6 C-1 2 -1 2 0 0 Z " fill="#9E9FA3" transform="translate(165,114)"/>
<path d="M0 0 C0.99 0.33 1.98 0.66 3 1 C2.01 2.98 1.02 4.96 0 7 C-0.99 7 -1.98 7 -3 7 C-3.33 7.66 -3.66 8.32 -4 9 C-5.65 8.67 -7.3 8.34 -9 8 C-8 6 -8 6 -5.0625 4.5625 C-1.78256825 3.20367158 -1.78256825 3.20367158 0 0 Z " fill="#4E5259" transform="translate(237,169)"/>
<path d="M0 0 C0 2.64 0 5.28 0 8 C-0.33 8 -0.66 8 -1 8 C-1 6.02 -1 4.04 -1 2 C-3.31 2 -5.62 2 -8 2 C-8 3.65 -8 5.3 -8 7 C-8.33 7 -8.66 7 -9 7 C-9 4.36 -9 1.72 -9 -1 C-5.38055101 -2.34053666 -3.42632833 -1.61798838 0 0 Z " fill="#B9BCC1" transform="translate(438,128)"/>
<path d="M0 0 C0.33 0 0.66 0 1 0 C1.03738281 0.60328125 1.07476562 1.2065625 1.11328125 1.828125 C1.49705337 6.49359002 1.80844119 9.39215091 5 13 C5 13.99 5 14.98 5 16 C3.35 16 1.7 16 0 16 C0 10.72 0 5.44 0 0 Z " fill="#BDBEC0" transform="translate(127,132)"/>
<path d="M0 0 C0.66 0 1.32 0 2 0 C2.66 0.99 3.32 1.98 4 3 C4.66 3.66 5.32 4.32 6 5 C2.00439392 7.83022097 -1.42737323 6.76210446 -6 6 C-5.67 5.34 -5.34 4.68 -5 4 C-3.35 4.33 -1.7 4.66 0 5 C0 3.35 0 1.7 0 0 Z " fill="#9CA0A4" transform="translate(158,167)"/>
<path d="M0 0 C2.475 0.99 2.475 0.99 5 2 C5 2.66 5 3.32 5 4 C4.401875 4.103125 3.80375 4.20625 3.1875 4.3125 C0.71756736 5.08876455 -0.32251235 6.07088921 -2 8 C-2.66 6.68 -3.32 5.36 -4 4 C-2.68 2.68 -1.36 1.36 0 0 Z " fill="#8E9194" transform="translate(387,167)"/>
<path d="M0 0 C0.99 0.33 1.98 0.66 3 1 C2.979375 2.0725 2.95875 3.145 2.9375 4.25 C2.9857984 7.14790424 3.13155885 9.28612141 4 12 C3.01 12.495 3.01 12.495 2 13 C1.896875 12.401875 1.79375 11.80375 1.6875 11.1875 C0.91123545 8.71756736 -0.07088921 7.67748765 -2 6 C-1.01 5.34 -0.02 4.68 1 4 C1.33 3.34 1.66 2.68 2 2 C0.68 1.67 -0.64 1.34 -2 1 C-1.34 0.67 -0.68 0.34 0 0 Z " fill="#D6F3F7" transform="translate(194,188)"/>
<path d="M0 0 C1.67542976 0.28604898 3.34385343 0.61781233 5 1 C4.67 2.32 4.34 3.64 4 5 C0.65626525 4.44271087 -2.03312999 3.64826111 -5 2 C-4.360625 1.855625 -3.72125 1.71125 -3.0625 1.5625 C-1.02454854 1.18992819 -1.02454854 1.18992819 0 0 Z " fill="#63666C" transform="translate(327,169)"/>
<path d="M0 0 C0.94875 0.04125 1.8975 0.0825 2.875 0.125 C2.875 1.115 2.875 2.105 2.875 3.125 C2.070625 3.24875 1.26625 3.3725 0.4375 3.5 C-0.8309375 3.809375 -0.8309375 3.809375 -2.125 4.125 C-2.455 4.785 -2.785 5.445 -3.125 6.125 C-3.785 4.805 -4.445 3.485 -5.125 2.125 C-3.125 0.125 -3.125 0.125 0 0 Z " fill="#5C5E63" transform="translate(421.125,147.875)"/>
<path d="M0 0 C2.97 0.495 2.97 0.495 6 1 C6 2.32 6 3.64 6 5 C4.35 5.33 2.7 5.66 1 6 C0 1.125 0 1.125 0 0 Z " fill="#5A5F64" transform="translate(354,164)"/>
<path d="M0 0 C1.98 0.66 3.96 1.32 6 2 C4 3 4 3 0 2 C0 4.97 0 7.94 0 11 C-0.99 10.67 -1.98 10.34 -3 10 C-2.25 2.25 -2.25 2.25 0 0 Z " fill="#C9EEF0" transform="translate(337,190)"/>
<path d="M0 0 C0.33 0.99 0.66 1.98 1 3 C1.99 3 2.98 3 4 3 C4.33 2.01 4.66 1.02 5 0 C5.33 0.99 5.66 1.98 6 3 C5.67 3.66 5.34 4.32 5 5 C3.68 5 2.36 5 1 5 C1 5.99 1 6.98 1 8 C0.34 8 -0.32 8 -1 8 C-1.04241723 5.66705225 -1.04092937 3.33297433 -1 1 C-0.67 0.67 -0.34 0.34 0 0 Z " fill="#61BDB9" transform="translate(320,193)"/>
<path d="M0 0 C-0.33 1.32 -0.66 2.64 -1 4 C-1.99 4 -2.98 4 -4 4 C-4.33 3.34 -4.66 2.68 -5 2 C-5.33 4.31 -5.66 6.62 -6 9 C-6.33 9 -6.66 9 -7 9 C-7.66 6.36 -8.32 3.72 -9 1 C-6.04335481 -0.4783226 -3.25770263 -0.06032783 0 0 Z " fill="#BCE9E9" transform="translate(325,192)"/>
<path d="M0 0 C1.125 3.75 1.125 3.75 0 6 C-0.66 6 -1.32 6 -2 6 C-1.67 7.32 -1.34 8.64 -1 10 C-2.32 10 -3.64 10 -5 10 C-4 7 -3 4 -2 1 C-1.34 0.67 -0.68 0.34 0 0 Z " fill="#A6A8AC" transform="translate(203,114)"/>
<path d="M0 0 C2.00720923 0.28674418 4.0085944 0.61866701 6 1 C6.33 2.32 6.66 3.64 7 5 C5.02 5.33 3.04 5.66 1 6 C1 5.01 1 4.02 1 3 C0.34 2.34 -0.32 1.68 -1 1 C-0.67 0.67 -0.34 0.34 0 0 Z " fill="#CDF5F6" transform="translate(371,190)"/>
<path d="M0 0 C0.66 0 1.32 0 2 0 C2.25 5.625 2.25 5.625 0 9 C-0.66 9 -1.32 9 -2 9 C-1.125 2.25 -1.125 2.25 0 0 Z " fill="#5D6064" transform="translate(441,161)"/>
<path d="M0 0 C1.86113056 3.14065783 2.27966763 5.36432086 2 9 C1.67 9.99 1.34 10.98 1 12 C0.65179959 13.66362417 0.31595508 15.32995171 0 17 C-0.33 17 -0.66 17 -1 17 C-1.10477512 11.21408489 -0.99250545 5.70690634 0 0 Z " fill="#D4D4D6" transform="translate(206,130)"/>
<path d="M0 0 C0.99 0 1.98 0 3 0 C3 0.66 3 1.32 3 2 C3.66 2 4.32 2 5 2 C5.28875 2.61875 5.5775 3.2375 5.875 3.875 C6.93720042 6.13325765 6.93720042 6.13325765 9 8 C7.35 8 5.7 8 4 8 C4 6.35 4 4.7 4 3 C2.02 3 0.04 3 -2 3 C-1.34 2.01 -0.68 1.02 0 0 Z " fill="#CCCCCF" transform="translate(168,133)"/>
<path d="M0 0 C1.90521123 3.81042246 2.25371444 5.09193853 2.1875 9.125 C2.18105469 9.99382812 2.17460937 10.86265625 2.16796875 11.7578125 C2 14 2 14 1 16 C0.34 16 -0.32 16 -1 16 C-0.67 10.72 -0.34 5.44 0 0 Z " fill="#BBBDBF" transform="translate(299,159)"/>
<path d="M0 0 C1.0625 1.8125 1.0625 1.8125 2 4 C1.67 4.99 1.34 5.98 1 7 C0.77820215 8.89212737 0.59385985 10.78884472 0.4375 12.6875 C0.31181641 14.17830078 0.31181641 14.17830078 0.18359375 15.69921875 C0.12300781 16.45847656 0.06242188 17.21773437 0 18 C-0.33 18 -0.66 18 -1 18 C-1.99989549 11.40609458 -2.00925164 6.38232875 0 0 Z " fill="#9D9FA1" transform="translate(198,125)"/>
<path d="M0 0 C1.65 0 3.3 0 5 0 C4.67 1.65 4.34 3.3 4 5 C3.34 5 2.68 5 2 5 C1.34 6.32 0.68 7.64 0 9 C0 6.03 0 3.06 0 0 Z " fill="#88D5D2" transform="translate(403,192)"/>
<path d="M0 0 C0.66 0.99 1.32 1.98 2 3 C1.67 3.66 1.34 4.32 1 5 C0.32136945 6.9959722 -0.34641919 8.99568551 -1 11 C-1.66 10.34 -2.32 9.68 -3 9 C-2.67582137 5.19090105 -2.14418558 3.21627837 0 0 Z " fill="#DAF1F1" transform="translate(289,189)"/>
<path d="M0 0 C0.66 0.33 1.32 0.66 2 1 C2.4140625 3.06640625 2.4140625 3.06640625 2.625 5.5625 C2.69976562 6.38878906 2.77453125 7.21507812 2.8515625 8.06640625 C2.90054687 8.70449219 2.94953125 9.34257812 3 10 C1.35 10.66 -0.3 11.32 -2 12 C-1.505 11.2575 -1.505 11.2575 -1 10.5 C0.43636358 6.90909106 0.12851462 3.85543873 0 0 Z " fill="#BABBBC" transform="translate(385,147)"/>
<path d="M0 0 C1.32 0.33 2.64 0.66 4 1 C3.01 1.495 3.01 1.495 2 2 C2 3.32 2 4.64 2 6 C0.68 6 -0.64 6 -2 6 C-1.49396008 3.83125748 -1.00016187 2.00032373 0 0 Z " fill="#D9FBFC" transform="translate(146,190)"/>
<path d="M0 0 C1.60031344 3.20062687 0.03173691 5.72271806 -1 9 C-2.32 9 -3.64 9 -5 9 C-5 7.35 -5 5.7 -5 4 C-4.34 4.66 -3.68 5.32 -3 6 C-2.01 4.02 -1.02 2.04 0 0 Z " fill="#BABDC0" transform="translate(440,161)"/>
<path d="M0 0 C2.125 0.375 2.125 0.375 4 1 C4 1.66 4 2.32 4 3 C3.34 3 2.68 3 2 3 C1.34 3.66 0.68 4.32 0 5 C-1 6 -2 7 -3 8 C-2.25 2.25 -2.25 2.25 0 0 Z " fill="#E4E7E7" transform="translate(423,151)"/>
<path d="M0 0 C1.32 0 2.64 0 4 0 C4 2 4 2 2.5 3.625 C2.005 4.07875 1.51 4.5325 1 5 C2.98 5 4.96 5 7 5 C7 5.33 7 5.66 7 6 C4.36 6 1.72 6 -1 6 C-1.33 5.34 -1.66 4.68 -2 4 C-1.34 4 -0.68 4 0 4 C-0.33 3.01 -0.66 2.02 -1 1 C-0.67 0.67 -0.34 0.34 0 0 Z " fill="#F3F3F3" transform="translate(111,150)"/>
<path d="M0 0 C0.66 0.33 1.32 0.66 2 1 C2 1.99 2 2.98 2 4 C-1 6 -1 6 -3 7 C-3.33 5.35 -3.66 3.7 -4 2 C-2.125 0.9375 -2.125 0.9375 0 0 Z " fill="#A3A3A3" transform="translate(177,141)"/>
<path d="M0 0 C2.475 0.495 2.475 0.495 5 1 C5 3.97 5 6.94 5 10 C3 6 3 6 3 2 C2.01 2 1.02 2 0 2 C0 1.34 0 0.68 0 0 Z " fill="#C0C1C3" transform="translate(204,112)"/>
<path d="M0 0 C0.66 0.99 1.32 1.98 2 3 C1.67 3.99 1.34 4.98 1 6 C0.34 6 -0.32 6 -1 6 C-1.33 5.34 -1.66 4.68 -2 4 C-2.99 4 -3.98 4 -5 4 C-3.74458443 1.48916886 -2.49936512 1.12874554 0 0 Z " fill="#CDEFEF" transform="translate(231,190)"/>
<path d="M0 0 C0.95904856 3.83619425 0.91892116 5.32431536 0 9 C-0.99 9.33 -1.98 9.66 -3 10 C-2.01 6.7 -1.02 3.4 0 0 Z " fill="#979A9F" transform="translate(392,151)"/>
<path d="M0 0 C1.32 0.33 2.64 0.66 4 1 C4 1.99 4 2.98 4 4 C2.35 4.66 0.7 5.32 -1 6 C-1 3 -1 3 0 0 Z " fill="#AFB0B2" transform="translate(442,153)"/>
<path d="M0 0 C0.66 0.33 1.32 0.66 2 1 C2.32613618 5.67461851 1.70582788 8.16674383 -1 12 C-2.58951002 8.82097996 -0.98253235 6.29437316 0 3 C0 2.01 0 1.02 0 0 Z " fill="#B6B9BC" transform="translate(252,144)"/>
<path d="M0 0 C0.5775 0.37125 1.155 0.7425 1.75 1.125 C0.1 1.125 -1.55 1.125 -3.25 1.125 C-3.58 2.115 -3.91 3.105 -4.25 4.125 C-6.3125 4.8125 -6.3125 4.8125 -8.25 5.125 C-7.26858061 2.67145152 -6.52754408 1.32853232 -4.375 -0.25 C-2.25 -0.875 -2.25 -0.875 0 0 Z " fill="#B4B5B7" transform="translate(402.25,142.875)"/>
<path d="M0 0 C0.33 1.65 0.66 3.3 1 5 C0.01 4.67 -0.98 4.34 -2 4 C-2.99 4.495 -2.99 4.495 -4 5 C-4 4.34 -4 3.68 -4 3 C-4.66 2.67 -5.32 2.34 -6 2 C-3 0 -3 0 0 0 Z " fill="#ADAFB3" transform="translate(414,166)"/>
<path d="M0 0 C0.33 0 0.66 0 1 0 C1.33 2.97 1.66 5.94 2 9 C1.01 9.495 1.01 9.495 0 10 C-0.66 7.69 -1.32 5.38 -2 3 C-1.34 3 -0.68 3 0 3 C0 2.01 0 1.02 0 0 Z " fill="#4D4F56" transform="translate(169,162)"/>
<path d="M0 0 C0.99 0 1.98 0 3 0 C3 2.31 3 4.62 3 7 C2.01 7.495 2.01 7.495 1 8 C0.40267181 5.23735711 0 2.83967231 0 0 Z " fill="#85898D" transform="translate(179,156)"/>
<path d="M0 0 C0.66 0.33 1.32 0.66 2 1 C2 2.32 2 3.64 2 5 C-0.4375 4.625 -0.4375 4.625 -3 4 C-3.33 3.34 -3.66 2.68 -4 2 C-2.125 0.9375 -2.125 0.9375 0 0 Z " fill="#8F9496" transform="translate(125,176)"/>
<path d="M0 0 C-1.0625 1.5625 -1.0625 1.5625 -3 3 C-6.6875 2.6875 -6.6875 2.6875 -10 2 C-10 1.67 -10 1.34 -10 1 C-3.71428571 -1.42857143 -3.71428571 -1.42857143 0 0 Z " fill="#AFB1B5" transform="translate(237,170)"/>
<path d="M0 0 C0.33 0.66 0.66 1.32 1 2 C3.32156597 2.40729228 5.6568787 2.74438677 8 3 C8 3.99 8 4.98 8 6 C7.01 5.67 6.02 5.34 5 5 C5 4.34 5 3.68 5 3 C3.02 3 1.04 3 -1 3 C-0.67 2.01 -0.34 1.02 0 0 Z " fill="#EEFEFC" transform="translate(259,189)"/>
<path d="M0 0 C0.66 0 1.32 0 2 0 C2 2.97 2 5.94 2 9 C1.01 9.495 1.01 9.495 0 10 C0 6.7 0 3.4 0 0 Z " fill="#FFFFFF" transform="translate(156,191)"/>
<path d="M0 0 C0.99 0.66 1.98 1.32 3 2 C1.68 3.32 0.36 4.64 -1 6 C-1.66 5.67 -2.32 5.34 -3 5 C-2.01 3.35 -1.02 1.7 0 0 Z " fill="#84888E" transform="translate(410,161)"/>
<path d="M0 0 C0.33 0 0.66 0 1 0 C0.67 2.31 0.34 4.62 0 7 C-2.31 6.67 -4.62 6.34 -7 6 C-5 5 -3 4 -1 3 C-0.67 2.01 -0.34 1.02 0 0 Z " fill="#E7E9EA" transform="translate(428,141)"/>
<path d="M0 0 C0.99 0.33 1.98 0.66 3 1 C2.67 1.99 2.34 2.98 2 4 C1.34 4 0.68 4 0 4 C0 2.68 0 1.36 0 0 Z " fill="#FFFFFF" transform="translate(366,193)"/>
<path d="M0 0 C0.99 0 1.98 0 3 0 C2.67 1.32 2.34 2.64 2 4 C2 3.01 2 2.02 2 1 C1.34 0.67 0.68 0.34 0 0 Z " fill="#FBFFFF" transform="translate(137,196)"/>
<path d="M0 0 C4 1 4 1 4 1 Z " fill="#FFFFFF" transform="translate(381,194)"/>
<path d="" fill="#FFFFFF" transform="translate(0,0)"/>
<path d="M0 0 C0.66 0.66 1.32 1.32 2 2 C1.34 2 0.68 2 0 2 C0 1.34 0 0.68 0 0 Z " fill="#FFFFFF" transform="translate(231,197)"/>
<path d="M0 0 C3 1 3 1 3 1 Z " fill="#FFFFFF" transform="translate(156,112)"/>
<path d="" fill="#FFFFFF" transform="translate(0,0)"/>
<path d="M0 0 C2 1 2 1 2 1 Z " fill="#FFFFFF" transform="translate(261,188)"/>
<path d="" fill="#FFFFFF" transform="translate(0,0)"/>
<path d="" fill="#FFFFFF" transform="translate(0,0)"/>
<path d="M0 0 C2 1 2 1 2 1 Z " fill="#FFFFFF" transform="translate(386,158)"/>
<path d="" fill="#FFFFFF" transform="translate(0,0)"/>
<path d="M0 0 C2 1 2 1 2 1 Z " fill="#FFFFFF" transform="translate(419,145)"/>
<path d="" fill="#FFFFFF" transform="translate(0,0)"/>
<path d="M0 0 C2 1 2 1 2 1 Z " fill="#FFFFFF" transform="translate(293,111)"/>
<path d="" fill="#FFFFFF" transform="translate(0,0)"/>
<path d="" fill="#FFFFFF" transform="translate(0,0)"/>
<path d="" fill="#FFFFFF" transform="translate(0,0)"/>
<path d="" fill="#FFFFFF" transform="translate(0,0)"/>
<path d="" fill="#FFFFFF" transform="translate(0,0)"/>
<path d="" fill="#FFFFFF" transform="translate(0,0)"/>
<path d="" fill="#FFFFFF" transform="translate(0,0)"/>
<path d="" fill="#FFFFFF" transform="translate(0,0)"/>
<path d="" fill="#FFFFFF" transform="translate(0,0)"/>
<path d="" fill="#FFFFFF" transform="translate(0,0)"/>
<path d="" fill="#FFFFFF" transform="translate(0,0)"/>
<path d="" fill="#FFFFFF" transform="translate(0,0)"/>
<path d="" fill="#FFFFFF" transform="translate(0,0)"/>
<path d="" fill="#FFFFFF" transform="translate(0,0)"/>
<path d="" fill="#FFFFFF" transform="translate(0,0)"/>
<path d="" fill="#FFFFFF" transform="translate(0,0)"/>
<path d="" fill="#FFFFFF" transform="translate(0,0)"/>
<path d="" fill="#FFFFFF" transform="translate(0,0)"/>
<path d="" fill="#FFFFFF" transform="translate(0,0)"/>
<path d="" fill="#FFFFFF" transform="translate(0,0)"/>
<path d="" fill="#FFFFFF" transform="translate(0,0)"/>
<path d="" fill="#FFFFFF" transform="translate(0,0)"/>
<path d="" fill="#FFFFFF" transform="translate(0,0)"/>
<path d="" fill="#FFFFFF" transform="translate(0,0)"/>
<path d="" fill="#FFFFFF" transform="translate(0,0)"/>
<path d="" fill="#FFFFFF" transform="translate(0,0)"/>
<path d="" fill="#EDEDED" transform="translate(0,0)"/>
<path d="" fill="#FFFFFF" transform="translate(0,0)"/>
<path d="" fill="#FFFFFF" transform="translate(0,0)"/>
<path d="" fill="#FFFFFF" transform="translate(0,0)"/>
<path d="" fill="#FFFFFF" transform="translate(0,0)"/>
<path d="" fill="#FFFFFF" transform="translate(0,0)"/>
<path d="" fill="#FFFFFF" transform="translate(0,0)"/>
<path d="" fill="#FFFFFF" transform="translate(0,0)"/>
<path d="" fill="#FFFFFF" transform="translate(0,0)"/>
<path d="" fill="#FFFFFF" transform="translate(0,0)"/>
<path d="" fill="#FFFFFF" transform="translate(0,0)"/>
<path d="" fill="#FFFFFF" transform="translate(0,0)"/>
<path d="" fill="#FFFFFF" transform="translate(0,0)"/>
<path d="" fill="#FFFFFF" transform="translate(0,0)"/>
<path d="" fill="#FFFFFF" transform="translate(0,0)"/>
<path d="" fill="#FFFFFF" transform="translate(0,0)"/>
<path d="" fill="#FFFFFF" transform="translate(0,0)"/>
<path d="" fill="#FFFFFF" transform="translate(0,0)"/>
<path d="" fill="#FFFFFF" transform="translate(0,0)"/>
<path d="" fill="#FFFFFF" transform="translate(0,0)"/>
<path d="" fill="#FFFFFF" transform="translate(0,0)"/>
<path d="" fill="#FFFFFF" transform="translate(0,0)"/>
<path d="" fill="#FFFFFF" transform="translate(0,0)"/>
<path d="" fill="#FFFFFF" transform="translate(0,0)"/>
<path d="" fill="#FFFFFF" transform="translate(0,0)"/>
<path d="" fill="#FFFFFF" transform="translate(0,0)"/>
<path d="" fill="#FFFFFF" transform="translate(0,0)"/>
<path d="" fill="#FFFFFF" transform="translate(0,0)"/>
<path d="" fill="#FFFFFF" transform="translate(0,0)"/>
<path d="" fill="#FFFFFF" transform="translate(0,0)"/>
<path d="" fill="#FFFFFF" transform="translate(0,0)"/>
<path d="" fill="#FFFFFF" transform="translate(0,0)"/>
<path d="" fill="#FFFFFF" transform="translate(0,0)"/>
<path d="" fill="#FFFFFF" transform="translate(0,0)"/>
<path d="" fill="#FFFFFF" transform="translate(0,0)"/>
<path d="" fill="#FFFFFF" transform="translate(0,0)"/>
<path d="" fill="#FFFFFF" transform="translate(0,0)"/>
<path d="" fill="#FFFFFF" transform="translate(0,0)"/>
<path d="" fill="#FFFFFF" transform="translate(0,0)"/>
<path d="" fill="#FFFFFF" transform="translate(0,0)"/>
<path d="" fill="#FFFFFF" transform="translate(0,0)"/>
<path d="" fill="#FFFFFF" transform="translate(0,0)"/>
<path d="" fill="#FFFFFF" transform="translate(0,0)"/>
<path d="" fill="#FFFFFF" transform="translate(0,0)"/>
<path d="" fill="#FFFFFF" transform="translate(0,0)"/>
<path d="" fill="#FFFFFF" transform="translate(0,0)"/>
<path d="" fill="#FFFFFF" transform="translate(0,0)"/>
<path d="" fill="#FFFFFF" transform="translate(0,0)"/>
<path d="" fill="#FFFFFF" transform="translate(0,0)"/>
<path d="" fill="#FFFFFF" transform="translate(0,0)"/>
<path d="" fill="#FFFFFF" transform="translate(0,0)"/>
<path d="" fill="#FFFFFF" transform="translate(0,0)"/>
<path d="" fill="#FFFFFF" transform="translate(0,0)"/>
<path d="" fill="#EDEDED" transform="translate(0,0)"/>
<path d="" fill="#E6FFFF" transform="translate(0,0)"/>
<path d="" fill="#FFFFFF" transform="translate(0,0)"/>
<path d="" fill="#FFFFFF" transform="translate(0,0)"/>
<path d="" fill="#FFFFFF" transform="translate(0,0)"/>
<path d="" fill="#FFFFFF" transform="translate(0,0)"/>
<path d="" fill="#FFFFFF" transform="translate(0,0)"/>
<path d="" fill="#FFFFFF" transform="translate(0,0)"/>
<path d="" fill="#FFFFFF" transform="translate(0,0)"/>
<path d="" fill="#FFFFFF" transform="translate(0,0)"/>
<path d="" fill="#FFFFFF" transform="translate(0,0)"/>
<path d="" fill="#FFFFFF" transform="translate(0,0)"/>
<path d="" fill="#FFFFFF" transform="translate(0,0)"/>
<path d="" fill="#FFFFFF" transform="translate(0,0)"/>
<path d="" fill="#FFFFFF" transform="translate(0,0)"/>
<path d="" fill="#FFFFFF" transform="translate(0,0)"/>
<path d="" fill="#FFFFFF" transform="translate(0,0)"/>
</svg>
